<?xml version="1.0" standalone="no"?>
<!DOCTYPE svg PUBLIC "-//W3C//DTD SVG 20010904//EN"
 "http://www.w3.org/TR/2001/REC-SVG-20010904/DTD/svg10.dtd">
<svg version="1.0" xmlns="http://www.w3.org/2000/svg"
 width="300.000000pt" height="200.000000pt" viewBox="0 0 300.000000 200.000000"
 preserveAspectRatio="xMidYMid meet">
<metadata>
Created by potrace 1.10, written by Peter Selinger 2001-2011
</metadata>
<g transform="translate(0.000000,200.000000) scale(0.100000,-0.100000)"
fill="#000000" stroke="none">
<path d="M1409 1671 c-36 -37 -38 -79 -6 -109 33 -31 80 -29 106 4 21 27 30
101 11 89 -5 -3 -7 0 -4 8 5 14 -34 37 -62 37 -9 0 -29 -13 -45 -29z m79 -3
c16 -16 15 -73 0 -85 -30 -23 -58 -22 -75 3 -19 30 -6 70 29 84 31 12 32 12
46 -2z m18 -86 c-15 -15 -15 -15 -4 10 7 15 15 23 17 17 2 -6 -4 -18 -13 -27z"/>
<path d="M2054 1626 c-19 -9 -38 -29 -51 -55 -11 -22 -22 -39 -24 -37 -2 3 -2
-18 -1 -45 11 -153 222 -117 222 38 0 47 -22 81 -66 99 -40 17 -41 17 -80 0z
m76 -26 c12 -7 8 -15 -22 -45 -29 -29 -40 -35 -62 -29 -40 10 -42 25 -7 56 32
28 64 35 91 18z m40 -37 c0 -5 -22 -32 -48 -61 l-47 -53 -32 21 c-53 32 -41
50 18 25 12 -4 27 6 50 34 31 37 59 53 59 34z m-6 -84 c-22 -44 -34 -55 -69
-61 -38 -8 -71 5 -86 34 -12 22 -12 22 14 5 27 -18 64 -22 83 -9 5 4 23 24 39
46 33 43 45 34 19 -15z"/>
<path d="M1265 1600 c-8 -14 3 -30 21 -30 8 0 14 9 14 20 0 21 -24 28 -35 10z"/>
<path d="M1537 1566 c-3 -8 -2 -18 3 -21 13 -8 20 9 11 24 -6 10 -10 9 -14 -3z"/>
<path d="M1725 1555 c-44 -7 -117 -19 -163 -26 -133 -20 -126 -6 -130 -287 -2
-130 0 -261 3 -290 l7 -54 56 -25 c32 -14 66 -32 77 -41 20 -17 20 -17 2 5
-10 12 -43 31 -73 43 l-55 23 3 278 c3 265 4 279 23 299 21 21 46 26 250 54
107 15 111 15 137 -4 21 -16 26 -17 22 -5 -6 16 -55 46 -71 44 -4 -1 -44 -7
-88 -14z"/>
<path d="M1260 1503 c-62 -23 -80 -96 -34 -138 31 -29 53 -31 95 -10 55 29 61
97 12 135 -26 20 -45 23 -73 13z m60 -42 c24 -45 8 -85 -36 -93 -25 -4 -64 28
-64 51 0 52 77 84 100 42z"/>
<path d="M1683 1503 c9 -2 25 -2 35 0 9 3 1 5 -18 5 -19 0 -27 -2 -17 -5z"/>
<path d="M1858 1499 c8 -9 12 -48 12 -119 l0 -107 -35 -19 c-19 -10 -35 -22
-35 -26 0 -13 10 -9 41 12 l28 21 4 -123 c1 -68 4 -14 5 118 2 222 1 242 -15
249 -15 5 -16 4 -5 -6z"/>
<path d="M1785 1490 c3 -5 12 -7 20 -3 21 7 19 13 -6 13 -11 0 -18 -4 -14 -10z"/>
<path d="M1718 1483 c6 -2 18 -2 25 0 6 3 1 5 -13 5 -14 0 -19 -2 -12 -5z"/>
<path d="M1678 1473 c7 -3 16 -2 19 1 4 3 -2 6 -13 5 -11 0 -14 -3 -6 -6z"/>
<path d="M1598 1463 c6 -2 18 -2 25 0 6 3 1 5 -13 5 -14 0 -19 -2 -12 -5z"/>
<path d="M1486 1452 c-2 -4 11 -6 30 -4 19 2 34 6 34 8 0 8 -59 4 -64 -4z"/>
<path d="M852 1434 c-18 -7 -32 -16 -32 -19 0 -3 10 -1 21 6 12 6 39 9 60 6
46 -6 49 -3 11 11 -20 7 -37 6 -60 -4z"/>
<path d="M829 1399 c-19 -10 -53 -37 -77 -61 -39 -41 -41 -46 -30 -71 7 -15
20 -27 29 -27 76 0 193 -73 255 -160 25 -35 44 -50 67 -55 18 -4 40 -9 50 -11
14 -5 17 2 17 41 0 71 -28 178 -60 229 -16 25 -48 59 -72 77 -24 17 -42 35
-40 41 1 5 -1 7 -5 5 -5 -3 -29 -2 -54 2 -36 6 -55 3 -80 -10z m144 -37 c20
-14 37 -29 37 -33 0 -5 6 -9 14 -9 15 0 36 -49 36 -85 0 -13 -9 -26 -24 -33
-19 -8 -26 -20 -28 -47 l-3 -36 -50 45 c-27 25 -67 52 -87 62 -21 9 -38 21
-38 27 0 5 -7 4 -15 -3 -18 -15 -25 -10 -28 18 0 11 -5 19 -9 16 -4 -3 -5 -10
-2 -18 3 -7 -2 -13 -11 -13 -9 0 -14 6 -11 14 3 8 2 11 -3 8 -5 -3 -12 -1 -16
4 -8 13 42 68 80 89 63 35 98 34 158 -6z m119 -187 c17 -38 0 -80 -32 -80 -18
0 -27 8 -34 27 -13 36 6 78 34 78 12 0 25 -10 32 -25z m38 -113 c0 -20 -4 -23
-32 -20 -32 3 -53 28 -24 28 8 0 20 10 27 21 9 17 13 19 20 8 5 -8 9 -24 9
-37z m-80 7 c0 -14 -17 -10 -23 5 -4 10 -1 13 9 9 7 -3 14 -9 14 -14z"/>
<path d="M734 1348 c-48 -51 -84 -97 -84 -109 0 -5 17 -9 38 -8 32 0 34 1 14
9 -22 9 -22 10 -6 42 9 18 32 50 52 71 20 20 34 37 31 37 -3 0 -23 -19 -45
-42z"/>
<path d="M1166 1341 c-4 -5 -2 -12 3 -15 5 -4 12 -2 15 3 4 5 2 12 -3 15 -5 4
-12 2 -15 -3z"/>
<path d="M2100 1340 c-9 -6 -10 -10 -3 -10 6 0 15 5 18 10 8 12 4 12 -15 0z"/>
<path d="M2273 1305 c0 -22 2 -30 4 -17 2 12 2 30 0 40 -3 9 -5 -1 -4 -23z"/>
<path d="M1200 1301 c-13 -26 -13 -31 5 -31 9 0 15 9 15 25 0 30 -6 32 -20 6z"/>
<path d="M1260 1290 c0 -5 5 -10 10 -10 6 0 10 5 10 10 0 6 -4 10 -10 10 -5 0
-10 -4 -10 -10z"/>
<path d="M1300 1290 c0 -5 5 -10 10 -10 6 0 10 5 10 10 0 6 -4 10 -10 10 -5 0
-10 -4 -10 -10z"/>
<path d="M2121 1274 c0 -11 3 -14 6 -6 3 7 2 16 -1 19 -3 4 -6 -2 -5 -13z"/>
<path d="M2161 1274 c0 -11 3 -14 6 -6 3 7 2 16 -1 19 -3 4 -6 -2 -5 -13z"/>
<path d="M2061 1264 c0 -11 3 -14 6 -6 3 7 2 16 -1 19 -3 4 -6 -2 -5 -13z"/>
<path d="M2081 1264 c0 -11 3 -14 6 -6 3 7 2 16 -1 19 -3 4 -6 -2 -5 -13z"/>
<path d="M2101 1264 c0 -11 3 -14 6 -6 3 7 2 16 -1 19 -3 4 -6 -2 -5 -13z"/>
<path d="M1156 1246 c-24 -19 -24 -22 -10 -41 11 -14 15 -15 14 -5 -4 31 0 41
18 38 9 -1 23 1 30 6 8 5 18 4 24 -2 6 -6 17 -8 24 -5 21 8 17 -24 -3 -36 -13
-8 -14 -10 -4 -11 11 0 9 -4 -5 -15 -25 -19 -64 -19 -91 0 -21 15 -21 15 -12
-17 5 -18 10 -59 10 -90 1 -32 5 -58 9 -58 4 0 7 7 8 15 1 8 3 22 4 30 1 8 5
12 10 9 4 -3 8 0 8 6 0 6 5 8 10 5 20 -12 40 17 40 56 0 26 4 39 13 39 16 0
47 32 47 48 0 18 -44 42 -83 45 -25 2 -44 -3 -61 -17z m61 -127 c0 -23 -4 -27
-27 -27 -23 1 -27 6 -28 30 -1 25 3 28 27 26 23 -2 28 -7 28 -29z"/>
<path d="M2083 1236 c-46 -7 -86 -15 -89 -19 -4 -4 -1 -7 7 -7 29 1 201 29
207 34 7 8 -28 6 -125 -8z"/>
<path d="M738 1223 c7 -3 16 -2 19 1 4 3 -2 6 -13 5 -11 0 -14 -3 -6 -6z"/>
<path d="M1662 1215 c-46 -7 -86 -15 -88 -17 -2 -3 4 -29 15 -59 l18 -54 46 3
c98 7 106 15 131 115 8 32 7 32 -122 12z m95 -55 c-13 -44 -14 -45 -65 -53
-29 -5 -59 -7 -66 -4 -12 5 -39 77 -32 85 7 6 171 27 174 22 1 -3 -4 -25 -11
-50z"/>
<path d="M1668 1173 c-21 -2 -38 -8 -38 -12 0 -11 92 -1 105 10 9 9 4 9 -67 2z"/>
<path d="M1650 1130 c0 -5 14 -7 33 -3 45 8 47 13 4 13 -20 0 -37 -4 -37 -10z"/>
<path d="M795 1210 c11 -5 27 -9 35 -9 9 0 8 4 -5 9 -11 5 -27 9 -35 9 -9 0
-8 -4 5 -9z"/>
<path d="M2098 1203 c6 -2 18 -2 25 0 6 3 1 5 -13 5 -14 0 -19 -2 -12 -5z"/>
<path d="M2038 1193 c6 -2 18 -2 25 0 6 3 1 5 -13 5 -14 0 -19 -2 -12 -5z"/>
<path d="M2203 1183 c-34 -7 -28 -20 7 -15 17 2 30 8 30 13 0 5 -3 8 -7 8 -5
-1 -18 -4 -30 -6z"/>
<path d="M2023 1158 c-35 -5 -63 -14 -63 -20 0 -5 8 -7 18 -4 9 3 38 8 65 12
26 3 47 10 47 15 0 5 -1 8 -2 8 -2 -1 -31 -6 -65 -11z"/>
<path d="M2188 1153 c-21 -2 -38 -8 -38 -13 0 -11 71 -1 85 11 6 6 6 8 0 7 -6
-1 -27 -3 -47 -5z"/>
<path d="M2030 1129 c-82 -14 -84 -19 -5 -13 39 4 74 10 80 15 11 10 2 10 -75
-2z"/>
<path d="M2195 1120 c-30 -8 -30 -8 8 -9 23 -1 36 3 32 9 -3 6 -7 9 -8 9 -1
-1 -15 -5 -32 -9z"/>
<path d="M955 1100 c10 -32 10 -32 30 -28 14 2 12 7 -10 28 l-27 25 7 -25z"/>
<path d="M1985 1090 l-30 -8 37 -1 c20 0 40 4 43 9 7 11 -6 11 -50 0z"/>
<path d="M1737 1084 c-15 -15 -7 -45 11 -42 9 2 17 12 17 22 0 20 -16 31 -28
20z m23 -18 c0 -3 -4 -8 -10 -11 -5 -3 -10 -1 -10 4 0 6 5 11 10 11 6 0 10 -2
10 -4z"/>
<path d="M2170 1082 c0 -5 14 -7 30 -4 17 2 30 6 30 8 0 2 -13 4 -30 4 -16 0
-30 -4 -30 -8z"/>
<path d="M1254 1071 c5 -7 -2 -11 -18 -11 -28 0 -56 -24 -56 -48 1 -11 6 -8
16 11 13 24 20 27 54 25 42 -3 51 -12 23 -22 -15 -6 -15 -8 -3 -16 9 -6 17 -5
22 3 5 8 8 6 8 -5 0 -11 10 -20 28 -23 15 -4 35 -10 45 -16 14 -7 17 -5 17 11
0 16 -7 20 -38 20 -32 0 -39 4 -49 29 -6 16 -21 34 -33 41 -15 8 -20 8 -16 1z"/>
<path d="M2015 1063 l-60 -12 59 5 c56 4 75 10 65 17 -2 2 -31 -3 -64 -10z"/>
<path d="M1594 1055 c-4 -9 -2 -21 4 -27 15 -15 44 -1 40 19 -4 23 -36 29 -44
8z m36 -3 c0 -13 -12 -22 -22 -16 -10 6 -1 24 13 24 5 0 9 -4 9 -8z"/>
<path d="M2130 1039 c-107 -15 -211 -29 -231 -32 -20 -2 -41 -7 -48 -11 -14
-9 -14 -333 0 -342 20 -12 6 -23 -43 -33 l-53 -10 49 4 c27 3 55 10 63 16 7 7
105 25 216 40 111 16 217 31 235 34 l32 6 0 168 c0 123 -3 171 -12 178 -9 6
-83 0 -208 -18z m198 -4 c3 -3 7 -12 8 -21 2 -13 0 -13 -14 -2 -11 9 -14 9 -8
1 11 -20 23 -182 12 -176 -5 4 -6 -7 -2 -28 5 -28 4 -31 -6 -18 -16 20 -48 32
-48 18 0 -6 -4 -8 -9 -4 -6 3 -10 -3 -10 -12 -1 -55 -5 -75 -15 -79 -11 -4
-222 -34 -239 -34 -6 0 -2 10 9 23 13 15 9 13 -11 -5 -35 -32 -122 -48 -136
-26 -15 22 -11 308 4 313 6 3 100 18 207 34 183 26 244 30 258 16z m-14 -270
c3 -8 -2 -22 -11 -30 -14 -15 -18 -15 -31 -1 -8 8 -12 22 -9 30 8 20 43 21 51
1z"/>
<path d="M2246 1009 c-27 -31 -33 -49 -17 -49 5 0 12 10 15 23 7 21 7 21 16 2
6 -14 9 -16 10 -5 1 8 3 25 4 38 3 28 3 28 -28 -9z"/>
<path d="M2292 990 c0 -14 2 -19 5 -12 2 6 2 18 0 25 -3 6 -5 1 -5 -13z"/>
<path d="M2152 960 c0 -14 2 -19 5 -12 2 6 2 18 0 25 -3 6 -5 1 -5 -13z"/>
<path d="M2083 955 c0 -8 4 -15 9 -15 4 0 8 7 8 15 0 8 -4 15 -8 15 -5 0 -9
-7 -9 -15z"/>
<path d="M2031 944 c0 -11 3 -14 6 -6 3 7 2 16 -1 19 -3 4 -6 -2 -5 -13z"/>
<path d="M2120 945 c0 -8 4 -15 10 -15 5 0 7 7 4 15 -4 8 -8 15 -10 15 -2 0
-4 -7 -4 -15z"/>
<path d="M2200 956 c0 -3 9 -10 20 -16 11 -6 20 -8 20 -6 0 3 -9 10 -20 16
-11 6 -20 8 -20 6z"/>
<path d="M2268 953 c12 -2 30 -2 40 0 9 3 -1 5 -23 4 -22 0 -30 -2 -17 -4z"/>
<path d="M1996 932 c-2 -4 -19 -9 -37 -10 -37 -3 -70 -27 -68 -51 1 -12 2 -12
6 2 5 21 42 37 84 37 28 0 29 -2 29 -45 0 -50 -4 -53 -64 -57 -35 -3 -41 0
-47 22 l-8 25 2 -24 c1 -13 11 -29 22 -35 11 -6 23 -15 27 -21 5 -6 8 -4 8 5
0 13 1 13 10 0 8 -13 10 -12 10 4 0 20 0 20 14 0 14 -18 15 -18 21 -1 4 9 15
17 24 17 11 0 12 3 4 8 -7 5 -11 21 -9 39 3 17 -2 42 -9 56 -7 14 -11 28 -7
31 3 3 3 6 -1 6 -3 0 -8 -4 -11 -8z"/>
<path d="M2169 913 c-13 -16 -12 -17 4 -4 16 13 21 21 13 21 -2 0 -10 -8 -17
-17z"/>
<path d="M2295 839 c-4 -6 -5 -12 -2 -15 2 -3 7 2 10 11 7 17 1 20 -8 4z"/>
<path d="M2160 830 l-25 -8 28 -1 c15 -1 27 4 27 9 0 6 -1 10 -2 9 -2 -1 -14
-5 -28 -9z"/>
<path d="M2223 833 c-7 -2 -13 -13 -13 -24 0 -11 -7 -19 -17 -19 -9 0 -14 -3
-10 -6 3 -4 14 -3 24 1 10 5 21 8 24 7 4 -1 4 8 1 20 -3 12 -1 19 4 16 5 -3
18 -2 29 3 18 7 18 8 -5 8 -14 -1 -31 -3 -37 -6z"/>
<path d="M2089 811 c7 -5 10 -14 7 -20 -4 -6 -3 -11 3 -11 5 0 13 5 17 11 7
11 -12 29 -31 29 -5 0 -4 -4 4 -9z"/>
<path d="M2157 791 c-4 -17 -3 -21 5 -13 5 5 8 16 6 23 -3 8 -7 3 -11 -10z"/>
<path d="M2070 779 c0 -5 -3 -8 -7 -6 -5 3 -17 -7 -28 -22 l-20 -26 29 22 c16
13 32 20 37 17 5 -3 6 2 3 10 -7 18 -14 21 -14 5z"/>
<path d="M960 1036 c0 -13 9 -31 20 -41 11 -10 23 -36 26 -57 7 -44 6 -44 132
-25 51 8 87 18 92 27 7 10 10 11 10 3 0 -8 9 -11 23 -9 12 3 30 5 39 5 10 1
15 7 12 15 -4 9 -34 15 -102 19 -113 7 -195 29 -228 62 l-24 24 0 -23z m87
-57 c15 -6 55 -14 88 -18 l60 -7 -45 -14 c-110 -32 -109 -32 -125 7 -21 50
-22 49 22 32z"/>
<path d="M971 958 c-1 -15 4 -30 9 -33 12 -7 12 12 0 40 -8 18 -9 17 -9 -7z"/>
<path d="M1364 943 c-12 -2 -26 -16 -33 -31 -11 -27 -11 -27 6 -7 21 24 78 27
78 4 0 -8 6 -25 14 -38 10 -18 12 -43 7 -95 -4 -39 -7 -96 -7 -126 1 -64 -15
-91 -57 -95 -16 -1 -34 -5 -40 -9 -7 -4 -16 -4 -22 -1 -5 3 -16 3 -22 -1 -7
-5 -31 -9 -53 -10 -22 -1 -42 -3 -45 -4 -3 -1 -13 -2 -22 -1 -10 1 -18 -2 -18
-7 0 -5 -17 -8 -37 -7 -21 1 -42 -1 -48 -4 -5 -3 -27 -6 -49 -7 -21 -1 -43 -7
-48 -12 -7 -7 -15 -6 -25 3 -11 11 -13 53 -13 200 l2 185 24 6 c13 3 24 10 24
16 0 14 -43 -2 -57 -21 -19 -25 -18 -400 1 -407 8 -3 121 10 252 28 220 31
239 35 250 56 6 12 14 19 19 14 4 -4 5 33 2 81 -6 101 -2 106 86 128 26 6 50
15 53 20 2 5 -31 25 -75 46 -72 34 -80 41 -83 68 -3 31 -18 38 -64 28z m166
-133 c0 -9 -47 -30 -65 -30 -15 0 -22 50 -9 63 7 7 74 -23 74 -33z"/>
<path d="M1673 918 l-73 -10 0 -47 c0 -26 2 -50 5 -52 2 -3 40 -1 82 5 l78 11
3 53 c2 38 0 52 -10 51 -7 -1 -46 -6 -85 -11z m79 -49 c-5 -36 -15 -37 -30 -1
l-12 27 4 -28 c2 -19 0 -27 -9 -23 -7 2 -18 -1 -25 -7 -10 -10 -12 -8 -6 6 3
10 6 25 6 32 0 14 18 21 56 22 17 0 19 -4 16 -28z m-82 9 c-1 -15 -24 -48 -34
-48 -8 0 -8 45 1 53 11 12 33 8 33 -5z"/>
<path d="M1248 780 c-37 -55 -62 -98 -57 -94 16 10 137 194 127 194 -2 0 -33
-45 -70 -100z"/>
<path d="M1576 761 c-4 -5 -29 -15 -56 -22 -74 -19 -66 -34 16 -29 18 1 35 -3
39 -9 13 -23 25 -9 25 29 0 37 -11 52 -24 31z"/>
<path d="M1332 748 c-17 -17 -15 -47 4 -55 23 -9 51 23 38 44 -14 22 -27 26
-42 11z"/>
<path d="M1702 693 l27 -4 -2 -152 -2 -152 -25 -2 c-14 -1 -45 -4 -70 -6 -58
-7 -140 9 -160 29 -14 15 -12 16 15 10 96 -20 130 -19 167 5 l37 24 1 73 c0
68 -2 73 -24 82 -13 5 -28 15 -33 22 -7 13 -163 42 -172 32 -6 -6 52 -27 74
-26 36 2 91 -17 111 -39 12 -14 19 -38 21 -74 2 -59 -8 -74 -35 -53 -15 12
-16 11 -3 -5 8 -9 11 -20 7 -24 -3 -4 -13 2 -22 13 -15 18 -15 18 -5 -3 15
-30 15 -29 -24 -25 -26 3 -35 9 -35 23 0 23 15 25 24 4 3 -8 11 -15 17 -15 8
0 8 4 -1 15 -7 8 -9 15 -5 15 4 0 -11 19 -34 42 -23 23 -45 54 -48 70 -3 15
-12 33 -19 39 -11 9 -11 3 2 -26 18 -44 11 -89 -17 -108 -14 -10 -18 -24 -16
-48 4 -51 37 -63 177 -64 l115 0 -3 96 -4 97 44 7 c51 7 85 23 92 41 4 9 -4 8
-22 -5 -15 -11 -46 -22 -69 -26 l-43 -7 0 66 0 66 -32 -1 c-30 -2 -30 -2 -6
-6z m-163 -197 c16 -19 3 -66 -18 -66 -36 0 -44 15 -27 49 18 34 28 38 45 17z"/>
<path d="M1623 683 c9 -2 25 -2 35 0 9 3 1 5 -18 5 -19 0 -27 -2 -17 -5z"/>
<path d="M1141 635 c-17 -20 -31 -39 -31 -42 0 -4 3 -3 8 3 4 5 20 24 36 42
17 17 27 32 24 32 -3 0 -20 -16 -37 -35z"/>
<path d="M2290 599 c-64 -12 -135 -24 -302 -51 -82 -12 -148 -26 -148 -29 0
-3 93 9 208 27 114 18 228 36 255 40 26 4 47 10 47 15 0 10 2 10 -60 -2z"/>
<path d="M1910 589 c20 -8 22 -12 10 -19 -13 -8 -12 -10 3 -10 9 0 17 4 17 8
0 14 -23 32 -39 31 -9 0 -5 -5 9 -10z"/>
<path d="M1810 550 c-23 -7 -23 -8 -3 -9 12 -1 25 4 28 9 3 6 5 10 3 9 -2 -1
-14 -5 -28 -9z"/>
<path d="M1868 553 c7 -3 16 -2 19 1 4 3 -2 6 -13 5 -11 0 -14 -3 -6 -6z"/>
<path d="M1452 520 c0 -19 2 -27 5 -17 2 9 2 25 0 35 -3 9 -5 1 -5 -18z"/>
<path d="M1373 463 c9 -2 25 -2 35 0 9 3 1 5 -18 5 -19 0 -27 -2 -17 -5z"/>
<path d="M914 438 c-8 -13 22 -38 45 -38 9 1 3 7 -14 14 -28 12 -29 13 -10 24
17 10 17 11 3 12 -9 0 -20 -5 -24 -12z"/>
<path d="M1243 443 c9 -2 25 -2 35 0 9 3 1 5 -18 5 -19 0 -27 -2 -17 -5z"/>
<path d="M1118 423 c6 -2 18 -2 25 0 6 3 1 5 -13 5 -14 0 -19 -2 -12 -5z"/>
<path d="M1038 413 c7 -3 16 -2 19 1 4 3 -2 6 -13 5 -11 0 -14 -3 -6 -6z"/>
<path d="M1458 363 c6 -11 30 -28 53 -37 49 -20 239 -35 239 -19 0 6 -34 10
-82 10 -96 1 -154 14 -193 45 -27 21 -27 21 -17 1z"/>
</g>
</svg>
